<svg id="Layer_1" data-name="Layer 1" xmlns="http://www.w3.org/2000/svg" xmlns:xlink="http://www.w3.org/1999/xlink" viewBox="0 0 288 288"><defs><style>.cls-1,.cls-2,.cls-6{fill:none;}.cls-2{stroke:#fff;stroke-linecap:round;stroke-width:2px;stroke-dasharray:10 10;}.cls-2,.cls-6{stroke-miterlimit:10;}.cls-3{clip-path:url(#clip-path);}.cls-4{isolation:isolate;}.cls-5{fill:#ffc000;}.cls-6{stroke:#bfbfbf;stroke-width:7px;}.cls-7{fill:#e74424;}.cls-8{fill:#f7f1e6;}.cls-9{fill:#2b3237;}.cls-10{fill:#7c4691;}.cls-11{fill:#d43d21;}.cls-12{fill:#e0dcd3;}.cls-13{fill:#f3dbbd;}.cls-14{fill:#c3bfb8;}.cls-15{fill:#e6a123;}.cls-16{fill:#d09220;}</style><clipPath id="clip-path"><rect class="cls-1" x="-764" y="-87" width="1214.67" height="1636"/></clipPath></defs><title>Artboard 1</title><circle class="cls-2" cx="144" cy="144" r="124"/><g id="layer1"><g id="g3380"><g class="cls-3"><g id="g3382"><g id="text3388" class="cls-4"><g class="cls-4"><path class="cls-5" d="M145.61,90.83q18.23,0,30.22,13.33a43.11,43.11,0,0,1-.62,58q-11.52,12.49-29.6,12.49t-29.67-12.49a43,43,0,0,1-.62-57.91Q127.3,90.83,145.61,90.83Zm0,10a29.15,29.15,0,0,0-21.76,9.45,31.76,31.76,0,0,0-9.1,22.85,32.66,32.66,0,0,0,4.15,16.12,29.54,29.54,0,0,0,11.21,11.54,31.58,31.58,0,0,0,31,0,29.57,29.57,0,0,0,11.21-11.54,32.68,32.68,0,0,0,4.15-16.12,31.68,31.68,0,0,0-9.13-22.85A29.19,29.19,0,0,0,145.57,100.86Z"/></g></g></g></g></g><path id="path3404" class="cls-6" d="M127,189.42h37.17"/><path id="path3406" class="cls-6" d="M133.18,203.25H158"/><path id="path3414" class="cls-5" d="M177.36,159.49l-13,20.45H126.75l-13-20.45h63.57Z"/></g><g id="Layer_2" data-name="Layer 2"><path class="cls-7" d="M148.21,262a.42.42,0,0,1,.45-.3.45.45,0,0,1,.37.42l.68,8.66,1.26-5a.43.43,0,0,1,.42-.34.43.43,0,0,1,.4.36l.7,3.35,1.2-5.54a.43.43,0,0,1,.43-.36.44.44,0,0,1,.4.4l.9,7,.4-1.43a.43.43,0,0,1,.4-.33h4.52a9,9,0,0,0,1.29-3.24,7.74,7.74,0,0,0-1-5.7,6.28,6.28,0,0,0-4.74-2.56,5.3,5.3,0,0,0-.59,0,6.54,6.54,0,0,0-4.28,1.69,6.53,6.53,0,0,0-4.28-1.69,5.32,5.32,0,0,0-.59,0,6.28,6.28,0,0,0-4.74,2.56,7.74,7.74,0,0,0-1,5.7,9.08,9.08,0,0,0,1.32,3.29h3.79Z"/><path class="cls-7" d="M155.66,273a.43.43,0,0,1-.44.33.44.44,0,0,1-.38-.4l-.85-6.64-1.1,5.08a.43.43,0,0,1-.41.36h0a.43.43,0,0,1-.41-.36l-.74-3.5-1.45,5.73a.43.43,0,0,1-.41.34h0a.45.45,0,0,1-.38-.42l-.71-9.11-1.72,5.27a.43.43,0,0,1-.4.31h-3.48a50,50,0,0,0,5,5.74s1.44,1.58,1.87,2a2.2,2.2,0,0,0,3.58,0c.43-.41,1.87-2,1.87-2a49.49,49.49,0,0,0,5.05-5.79h-3.61Z"/><path class="cls-8" d="M161.66,269h-5.44a.43.43,0,0,0-.4.33l-.4,1.43-.9-7a.44.44,0,0,0-.4-.4.43.43,0,0,0-.43.36l-1.2,5.54-.7-3.35a.43.43,0,0,0-.4-.36.43.43,0,0,0-.42.34l-1.26,5-.68-8.66a.45.45,0,0,0-.37-.42.42.42,0,0,0-.45.3l-2.28,7h-5.57a.47.47,0,0,0,0,.93h5.86a.43.43,0,0,0,.4-.31l1.72-5.27.71,9.11a.45.45,0,0,0,.38.42h0a.43.43,0,0,0,.41-.34l1.45-5.73.74,3.5a.43.43,0,0,0,.41.36h0a.43.43,0,0,0,.41-.36l1.1-5.08.85,6.64a.44.44,0,0,0,.38.4.43.43,0,0,0,.44-.33l.87-3.08h5.13a.47.47,0,0,0,0-.93Z"/></g><g id="Layer_2-2" data-name="Layer 2"><path class="cls-1" d="M55.63,239h7c0-.35.05-.35.08-.35a4.4,4.4,0,0,0,.63-1.65H55A10.25,10.25,0,0,0,55.63,239Z"/><path class="cls-1" d="M59.17,241.5h.06a7.28,7.28,0,0,0,2.63-1.5H56.54A7.29,7.29,0,0,0,59.17,241.5Z"/><path class="cls-1" d="M55.67,234.22A4.15,4.15,0,0,0,55,236h8.33a6.79,6.79,0,0,0-.64-2H55.8C55.76,234.23,55.71,234.22,55.67,234.22Z"/><path class="cls-1" d="M56.6,233h5.19a7.33,7.33,0,0,0-2.57-1.45h-.06A7.32,7.32,0,0,0,56.6,233Z"/><path class="cls-9" d="M55.79,234h6.83a5,5,0,0,0-.9-1h-5A5,5,0,0,0,55.79,234Z"/><path class="cls-9" d="M55.76,239a4.9,4.9,0,0,0,.88,1h5.14a4.9,4.9,0,0,0,.88-1H55.76Z"/><path class="cls-9" d="M55,236.54v.09a3.66,3.66,0,0,0,0,.37H64a3.66,3.66,0,0,0,0-.38v-.09a3.64,3.64,0,0,0-.05-.53h-8.9A3.66,3.66,0,0,0,55,236.54Z"/><path class="cls-10" d="M60.64,241.89c2.66-1.12,4.31-3.13,4.36-5.38v-.11c0-2.25-1.7-4.26-4.36-5.37a7,7,0,0,0,2.42-2.17,5,5,0,0,0,.78-3.85c-.07-.31-.53-.54-1-.49s-.86.33-.79.65c.45,2.08-.76,4.13-3,5.22-2.25-1.09-3.46-3.13-3-5.22.07-.31-.28-.61-.79-.65s-1,.18-1,.49a5,5,0,0,0,.78,3.85A7,7,0,0,0,57.36,231c-2.66,1.12-4.31,3.13-4.36,5.38v.11c0,2.25,1.7,4.26,4.36,5.37a6.92,6.92,0,0,0-2.45,2.22,5,5,0,0,0-.73,3.9c.07.29.46.49.91.49h.14c.5,0,.85-.34.78-.65-.51-2.12.7-4.19,3-5.3,2.29,1.11,3.5,3.18,3,5.3-.08.31.27.61.78.65h.14c.45,0,.84-.21.91-.49a5,5,0,0,0-.73-3.9A6.92,6.92,0,0,0,60.64,241.89ZM59,241a6.92,6.92,0,0,1-2.49-1.42,5,5,0,0,1-.86-1,4,4,0,0,1-.6-1.67q0-.18,0-.36v-.09a3.83,3.83,0,0,1,0-.52,4.06,4.06,0,0,1,.61-1.57,5,5,0,0,1,.88-1A7,7,0,0,1,59,231.94H59a7,7,0,0,1,2.44,1.37,5,5,0,0,1,.88,1,4,4,0,0,1,.6,1.56,3.81,3.81,0,0,1,0,.51v.09q0,.18,0,.36a4,4,0,0,1-.6,1.67,5,5,0,0,1-.86,1A6.91,6.91,0,0,1,59,241H59Z"/></g><g id="Layer_2-3" data-name="Layer 2"><path class="cls-8" d="M36.71,193.59c-2.2-3.1-6.4-8.45-6.68-8.87v-6.5l-.24,0H25.36l-.24,0v6.5c-.28.42-4.44,5.71-6.68,8.87-1.64,2.3,0,3.85,1.93,3.78h14.4C36.71,197.44,38.34,195.9,36.71,193.59Zm-3.36,2.83H21.82c-1.55.05-2.86-1.18-1.55-3,.8-1.12,1.9-2.59,2.9-3.89H32c1,1.32,2.11,2.78,2.9,3.89C36.21,195.24,34.9,196.48,33.35,196.42Z"/><path class="cls-11" d="M32,189.5H23.17c-1,1.31-2.1,2.77-2.9,3.89-1.31,1.85,0,3.08,1.55,3H33.35c1.55.05,2.86-1.18,1.55-3C34.11,192.28,33,190.82,32,189.5Z"/><path class="cls-12" d="M29.79,178.31l.24,0a1,1,0,0,0,.82-1,1,1,0,0,0-1.06-1H25.36a1,1,0,0,0-1.06,1,1,1,0,0,0,.82,1l.24,0Z"/></g><g id="Layer_2-4" data-name="Layer 2"><path class="cls-8" d="M30.75,114.64H14.68c-.9,0-1.64.55-1.64,1.22v9c0,.67.74,1.22,1.64,1.22H30.75c.9,0,1.64-.55,1.64-1.22v-9C32.39,115.18,31.65,114.64,30.75,114.64Zm-2.26,5.07c-.27,1.22-2.21,2.58-3.78,3.68,0,0-.78.59-1,.74a1.91,1.91,0,0,1-1,.34,1.92,1.92,0,0,1-1-.34c-.23-.15-1-.74-1-.74-1.57-1.1-3.51-2.47-3.78-3.68a2.13,2.13,0,0,1,.55-2.11,4,4,0,0,1,2.58-.95h.32a4.59,4.59,0,0,1,2.33.62,4.6,4.6,0,0,1,2.33-.62h.32a4,4,0,0,1,2.58.95A2.13,2.13,0,0,1,28.48,119.7Z"/><path class="cls-9" d="M32.2,128.16H13c-1.16,0-2.1.7-2.1,1.56V130c0,.86.94,1.56,2.1,1.56H32.2c1.16,0,2.1-.7,2.1-1.56v-.28C34.29,128.86,33.36,128.16,32.2,128.16Zm-8.92,2.73H13.39c-.69,0-1.24-.42-1.24-.93v-.17c0-.51.56-.93,1.24-.93h9.89Z"/><path class="cls-8" d="M12.15,129.8V130c0,.51.56.93,1.24.93h9.89v-2H13.39C12.7,128.87,12.15,129.29,12.15,129.8Z"/><path class="cls-7" d="M25.36,116.65H25a4.6,4.6,0,0,0-2.33.62,4.59,4.59,0,0,0-2.33-.62h-.32a4,4,0,0,0-2.58.95,2.13,2.13,0,0,0-.55,2.11c.27,1.22,2.21,2.58,3.78,3.68,0,0,.78.59,1,.74a1.92,1.92,0,0,0,1,.34,1.91,1.91,0,0,0,1-.34c.23-.15,1-.74,1-.74,1.57-1.1,3.51-2.47,3.78-3.68a2.13,2.13,0,0,0-.54-2.11A4,4,0,0,0,25.36,116.65Z"/><path class="cls-9" d="M30.75,113.11H14.68c-2,0-3.69,1.23-3.69,2.75v9c0,1.52,1.65,2.75,3.69,2.75H30.75c2,0,3.69-1.23,3.69-2.75v-9C34.43,114.34,32.78,113.11,30.75,113.11Zm1.64,11.71c0,.67-.74,1.22-1.64,1.22H14.68c-.9,0-1.64-.55-1.64-1.22v-9c0-.67.74-1.22,1.64-1.22H30.75c.9,0,1.64.55,1.64,1.22v9Z"/></g><g id="Layer_2-5" data-name="Layer 2"><path class="cls-8" d="M57.64,49.5a1.89,1.89,0,0,0-1.19-1.21,1.08,1.08,0,0,0-.31,0c-1.73,0-4.81,3.67-6.29,6.83a15.49,15.49,0,0,0-1.57,8.13,2.54,2.54,0,0,0,2.58,2.1,3.64,3.64,0,0,0,3.06-2,6.16,6.16,0,0,0,.72,0h0a3,3,0,0,0,2.47-1,5.05,5.05,0,0,0,.79-3.11c0-.45,0-6.27,0-6.67a.31.31,0,0,1,0,0c-.12-1-.09-2.05-.26-3.07Z"/><path class="cls-8" d="M68.57,55.09c-1.49-3.16-4.56-6.83-6.29-6.83a1.08,1.08,0,0,0-.31,0,1.89,1.89,0,0,0-1.19,1.21h0a15,15,0,0,1-.25,3.15c0,.66,0,6.17,0,6.63a5,5,0,0,0,.79,3.11,3,3,0,0,0,2.47,1h0a6.15,6.15,0,0,0,.72,0,3.64,3.64,0,0,0,3.06,2,2.54,2.54,0,0,0,2.58-2.1A15.5,15.5,0,0,0,68.57,55.09Z"/><path class="cls-12" d="M60.76,49.5c-.08-.05-.49-.34-.49-.67V41.41c0-.27-.16-.35-.3-.35H58.45c-.2,0-.3.08-.3.35v7.41c0,.37-.43.64-.5.68.17,1,.14,2.05.26,3.07.07-.44,1-1.64,1.3-1.64a3,3,0,0,1,1.31,1.69v0A15,15,0,0,0,60.76,49.5Z"/></g><g id="Layer_2-6" data-name="Layer 2"><path class="cls-12" d="M139.58,24.88h7.55a.63.63,0,0,0,0-1.27h-7.55a.63.63,0,0,0,0,1.27Z"/><path class="cls-9" d="M147.5,8.3h0a2.24,2.24,0,0,1,.84,1.15,1.38,1.38,0,0,0-.41-1.72h0a1.15,1.15,0,0,0-1.54.21A2,2,0,0,1,147.5,8.3Z"/><path class="cls-9" d="M148.13,11.43a2.36,2.36,0,0,0,.21-.47v0a2.45,2.45,0,0,0,0-1.47,2.24,2.24,0,0,0-.84-1.15h0a2,2,0,0,0-1.12-.36,2.06,2.06,0,0,0-1.78,1l-3.43,5.77v0l0,0,3.15,2.31a.82.82,0,0,1,.23.26l.11-.16,2.77-4.65Z"/><path class="cls-9" d="M144.41,17l-3.15-2.31,0,0a.75.75,0,0,0-1.05.25.9.9,0,0,0,.21,1.18l3.15,2.31a.75.75,0,0,0,1.09-.23.91.91,0,0,0,0-.92A.82.82,0,0,0,144.41,17Z"/><path class="cls-9" d="M152.41,30.26h-1.62V26.38c1.32-1.9,3.26-5.38,2.82-8.94a7.94,7.94,0,0,0-3.93-5.81,11.81,11.81,0,0,0-1.33-.71v0a2.36,2.36,0,0,1-.21.47l-.66,1.12c1.62.71,4.08,2.24,4.44,5.17.33,2.67-1.09,5.44-2.21,7.16H137.94a.78.78,0,0,0,0,1.55h8.24v3.83H135.35a1.11,1.11,0,0,0,0,2.21h17.06a1.11,1.11,0,0,0,0-2.21Z"/></g><g id="Layer_2-7" data-name="Layer 2"><path class="cls-8" d="M228.84,236.75a1.8,1.8,0,0,1,.3-.25,5.06,5.06,0,0,0-.26-6.8,4.92,4.92,0,0,0-7,0,5.05,5.05,0,0,0,0,7.09,4.92,4.92,0,0,0,6.73.27A1.81,1.81,0,0,1,228.84,236.75Zm-2.41-1.39s-.38.39-.49.48a.61.61,0,0,1-.95,0c-.11-.1-.49-.48-.49-.48a5.68,5.68,0,0,1-1.84-2.42,1.76,1.76,0,0,1,.26-1.39,1.7,1.7,0,0,1,1.25-.62h.16a1.81,1.81,0,0,1,1.13.41,1.81,1.81,0,0,1,1.13-.41h.16a1.7,1.7,0,0,1,1.25.62,1.76,1.76,0,0,1,.26,1.39A5.68,5.68,0,0,1,226.43,235.36Z"/><path class="cls-9" d="M237.3,243.24l-5.09-5.14a1.82,1.82,0,0,1-.5,1.55,1.77,1.77,0,0,1-1.26.53l-.27,0,5.09,5.14a1.43,1.43,0,0,0,2,0A1.47,1.47,0,0,0,237.3,243.24Z"/><path class="cls-13" d="M228.6,237.06l.28-.27.26-.29a1.79,1.79,0,0,0-.55.55Z"/><path class="cls-13" d="M231.71,239.65a1.82,1.82,0,0,0,0-2.56l-.17-.17a7.28,7.28,0,0,1-2.53,2.56l.17.17a1.77,1.77,0,0,0,1,.51l.27,0A1.77,1.77,0,0,0,231.71,239.65Z"/><path class="cls-9" d="M230.43,238.36a7.29,7.29,0,0,0,0-10.23,7.1,7.1,0,0,0-10.12,0,7.29,7.29,0,0,0,0,10.23,7.1,7.1,0,0,0,8.69,1.12A7.21,7.21,0,0,0,230.43,238.36Zm-8.57-1.57a5.05,5.05,0,0,1,0-7.09,4.92,4.92,0,0,1,7,0,5.06,5.06,0,0,1,.26,6.8l-.26.29-.28.27a4.92,4.92,0,0,1-6.73-.27Z"/><path class="cls-11" d="M228,231.56a1.7,1.7,0,0,0-1.25-.62h-.16a1.81,1.81,0,0,0-1.13.41,1.81,1.81,0,0,0-1.13-.41h-.16a1.7,1.7,0,0,0-1.25.62,1.76,1.76,0,0,0-.26,1.39,5.68,5.68,0,0,0,1.84,2.42s.38.39.49.48a.61.61,0,0,0,.95,0c.11-.1.49-.48.49-.48a5.68,5.68,0,0,0,1.84-2.42A1.76,1.76,0,0,0,228,231.56Z"/></g><g id="Layer_2-8" data-name="Layer 2"><path class="cls-9" d="M265,189.33a11.31,11.31,0,0,0-.26,4.7c.15,1.8.29,3.51-.61,4.58-.71.85-2,1.3-4.06,1.37s-3.4-.4-4.15-1.4c-1.34-1.81-.46-5.16.12-7.37.19-.72.34-1.3.41-1.75h-.28a5.37,5.37,0,0,1-.57,0c-.07.41-.22,1-.37,1.54-.63,2.39-1.57,6,0,8.16.86,1.16,2.34,1.75,4.42,1.75h.41c2.27-.08,3.79-.63,4.66-1.67,1.13-1.36,1-3.33.82-5.25-.21-2.55-.41-5,2-6.44a3.1,3.1,0,0,1-.42-.76A4.86,4.86,0,0,0,265,189.33Z"/><path class="cls-14" d="M256.45,189.45c2.42-.13,4-1.85,4.21-2.71a6.59,6.59,0,0,1-4,1.42l-.16,0h-.08a6.67,6.67,0,0,1-4.72-1.64h0a.25.25,0,0,0,0,.07c0,.76,1.53,2.57,3.94,2.83a5.36,5.36,0,0,0,.57,0Z"/><path class="cls-9" d="M250.85,181.68c0-.12,0-.25,0-.37,0-2,.72-4,2.07-4.83a1,1,0,0,1-.38-.69,4.2,4.2,0,0,0-1.39,1.45,8,8,0,0,0-1,4.07c0,.19,0,.38,0,.56a.79.79,0,0,1,.42-.21A.74.74,0,0,1,250.85,181.68Z"/><path class="cls-9" d="M262,181.65a.78.78,0,0,1,.42.21c0-.19,0-.37,0-.56a8,8,0,0,0-1-4.07,4.2,4.2,0,0,0-1.39-1.45,1,1,0,0,1-.38.69c1.35.79,2.07,2.86,2.07,4.83,0,.12,0,.25,0,.37A.74.74,0,0,1,262,181.65Z"/><path class="cls-12" d="M256.41,188.18h.08l.16,0a6.59,6.59,0,0,0,4-1.42l.24-.21a6.12,6.12,0,0,0,1.86-3.84,1,1,0,0,0-.29-.84.79.79,0,0,0-.42-.21.74.74,0,0,0-.3,0,.9.9,0,0,0-.63.78c-.29,2.48-2.12,3.89-5,3.86h0c-2.65-.1-4.33-1.49-4.6-3.86a.9.9,0,0,0-.63-.78.74.74,0,0,0-.3,0,.78.78,0,0,0-.42.21,1,1,0,0,0-.29.84,6.13,6.13,0,0,0,1.84,3.83h0A6.67,6.67,0,0,0,256.41,188.18Z"/><path class="cls-15" d="M252.85,176.48a.77.77,0,0,0,.45.15c.46,0,1.26-.42,1.26-.94s-.8-.94-1.26-.94a.9.9,0,0,0-.84.94s0,.07,0,.1A1,1,0,0,0,252.85,176.48Z"/><path class="cls-15" d="M260.12,175.78s0-.07,0-.1a.9.9,0,0,0-.84-.94c-.46,0-1.26.42-1.26.94s.8.94,1.26.94a.77.77,0,0,0,.45-.15A1,1,0,0,0,260.12,175.78Z"/><path class="cls-12" d="M269.81,182.55a3,3,0,0,0-2.87,3.05,3.21,3.21,0,0,0,.21,1.15,3.1,3.1,0,0,0,.42.76,2.81,2.81,0,0,0,2.24,1.14,3.06,3.06,0,0,0,0-6.11Zm0,5.56a2.51,2.51,0,1,1,2.36-2.5A2.43,2.43,0,0,1,269.81,188.11Z"/><path class="cls-8" d="M269.81,183.1a2.51,2.51,0,1,0,2.36,2.5A2.43,2.43,0,0,0,269.81,183.1Zm0,3.69a1.19,1.19,0,1,1,1.12-1.19A1.15,1.15,0,0,1,269.81,186.79Z"/><ellipse class="cls-9" cx="269.81" cy="185.6" rx="1.16" ry="1.24"/></g><g id="Layer_2-9" data-name="Layer 2"><path class="cls-9" d="M234,45.71h-9.79a1.65,1.65,0,0,0-1.69,1.61V66.26a1.65,1.65,0,0,0,1.69,1.61H234a1.65,1.65,0,0,0,1.69-1.61V47.32A1.65,1.65,0,0,0,234,45.71Zm-7.31,1h4.83c.12,0,.22.17.22.39s-.1.39-.22.39h-4.83c-.12,0-.22-.17-.22-.39S226.61,46.69,226.73,46.69Zm2.42,19.58a1,1,0,1,1,1.08-1A1.06,1.06,0,0,1,229.15,66.28Zm5.32-3.53H223.83V48.43h10.63V62.75Z"/><rect class="cls-8" x="223.83" y="48.43" width="10.63" height="14.31"/><path class="cls-7" d="M231.52,54.62h-1.29V53.4a.79.79,0,0,0-.81-.77h-.54a.79.79,0,0,0-.81.77v1.23h-1.29a.79.79,0,0,0-.81.77v.52a.79.79,0,0,0,.81.77h1.29v1.23a.79.79,0,0,0,.81.77h.54a.79.79,0,0,0,.81-.77V56.69h1.29a.79.79,0,0,0,.81-.77V55.4A.79.79,0,0,0,231.52,54.62Z"/><path class="cls-15" d="M229.15,66.34a1.1,1.1,0,1,1,1.15-1.1A1.13,1.13,0,0,1,229.15,66.34Z"/><path class="cls-15" d="M226.73,46.69h4.83c.12,0,.22.17.22.39s-.1.39-.22.39h-4.83c-.12,0-.22-.17-.22-.39S226.61,46.69,226.73,46.69Z"/></g><g id="Layer_2-10" data-name="Layer 2"><path class="cls-9" d="M272.5,116.77a2.12,2.12,0,0,1-.73-.71l-4.3,5.77a2.81,2.81,0,0,1,.81.61Z"/><path class="cls-9" d="M264.2,126.82l-5,5.44a2.19,2.19,0,0,1,.67.78l5.05-5.52A2.94,2.94,0,0,1,264.2,126.82Z"/><path class="cls-9" d="M259.39,119.45a2.24,2.24,0,0,1-.63.84l4.91,3.51a3.36,3.36,0,0,1,.45-1Z"/><path class="cls-9" d="M265.49,118.34a1.44,1.44,0,0,1-.58.13l.55,3.27a2.5,2.5,0,0,1,.57-.14Z"/><path class="cls-9" d="M266.22,128l.21,3.35a1.43,1.43,0,0,1,.45-.07H267l-.21-3.33a2.49,2.49,0,0,1-.47,0Z"/><path class="cls-9" d="M275,131l-6.2-4.65a3.13,3.13,0,0,1-.63.84l6.28,4.71A2.32,2.32,0,0,1,275,131Z"/><path class="cls-9" d="M269.15,124.89l3.17-.78a2,2,0,0,1-.12-.65l-3.08.76a3.65,3.65,0,0,1,0,.55S269.15,124.85,269.15,124.89Z"/><path class="cls-9" d="M260.85,125.87a2,2,0,0,1,.13.65l2.79-.49a3.5,3.5,0,0,1-.18-.65Z"/><path class="cls-16" d="M259.39,119.95a2.54,2.54,0,0,0,.21-1,2,2,0,1,0-2,2.29,1.84,1.84,0,0,0,1.17-.42A2.24,2.24,0,0,0,259.39,119.95Z"/><path class="cls-16" d="M272.5,116.77a1.81,1.81,0,0,0,.9.24,2.31,2.31,0,1,0-2-2.29,2.5,2.5,0,0,0,.38,1.34A2.12,2.12,0,0,0,272.5,116.77Z"/><path class="cls-16" d="M276.28,130.48A1.87,1.87,0,0,0,275,131a2.32,2.32,0,0,0-.55.9,2.57,2.57,0,0,0-.14.83,2,2,0,1,0,2-2.29Z"/><path class="cls-16" d="M259.22,132.27a1.83,1.83,0,0,0-1.06-.35,2.31,2.31,0,1,0,2,2.29,2.52,2.52,0,0,0-.28-1.16A2.19,2.19,0,0,0,259.22,132.27Z"/><path class="cls-11" d="M268.81,126.43a3.58,3.58,0,0,0,.4-1.54s0-.09,0-.13a3.73,3.73,0,0,0,0-.56,3.41,3.41,0,0,0-.85-1.81,2.87,2.87,0,0,0-.83-.62,2.57,2.57,0,0,0-1.15-.27l-.32,0a2.56,2.56,0,0,0-.59.15,2.92,2.92,0,0,0-1.37,1.12,3.43,3.43,0,0,0-.46,1,3.68,3.68,0,0,0-.13,1,3.72,3.72,0,0,0,.05.64,3.58,3.58,0,0,0,.18.66,3.37,3.37,0,0,0,.44.81,3,3,0,0,0,.76.72,2.6,2.6,0,0,0,1.31.43h.12a2.54,2.54,0,0,0,.48,0,2.71,2.71,0,0,0,1.34-.7A3.21,3.21,0,0,0,268.81,126.43Z"/><path class="cls-12" d="M259.37,124.76A1.85,1.85,0,1,0,261,126.6s0-.05,0-.08a2,2,0,0,0-.13-.65A1.62,1.62,0,0,0,259.37,124.76Z"/><path class="cls-12" d="M266.51,116.63a1.63,1.63,0,1,0-1.61,1.84h0a1.44,1.44,0,0,0,.58-.13A1.85,1.85,0,0,0,266.51,116.63Z"/><path class="cls-12" d="M273.8,125.24a1.85,1.85,0,1,0-1.61-1.84s0,0,0,.05a2,2,0,0,0,.12.65A1.63,1.63,0,0,0,273.8,125.24Z"/><path class="cls-12" d="M266.44,131.3a1.82,1.82,0,0,0-1.17,1.76,1.63,1.63,0,1,0,3.23,0,1.76,1.76,0,0,0-1.47-1.83h-.14A1.43,1.43,0,0,0,266.44,131.3Z"/></g></svg>